@startuml
class TimelineEditor <<static>> {
    + {static} GetWindow() : TimelineEditorWindow
    + {static} GetOrCreateWindow() : TimelineEditorWindow
    + {static} Refresh(reason:RefreshReason) : void
    + {static} GetInspectedTimeFromMasterTime(masterTime:double) : double
    + {static} GetMasterTimeFromInspectedTime(inspectedTime:double) : double
}
enum RefreshReason {
    WindowNeedsRedraw= 1 << 0,
    SceneNeedsUpdate= 1 << 1,
    ContentsModified= 1 << 2,
    ContentsAddedOrRemoved= 1 << 3,
}
TimelineEditor --> "inspectedDirector" PlayableDirector
TimelineEditor --> "masterDirector" PlayableDirector
TimelineEditor --> "inspectedAsset" TimelineAsset
TimelineEditor --> "masterAsset" TimelineAsset
TimelineEditor --> "playableDirector" PlayableDirector
TimelineEditor --> "timelineAsset" TimelineAsset
TimelineEditor --> "selectedClip" TimelineClip
@enduml
