@startuml
interface ITestRunnerListener {
}
class TestFinishedEvent {
}
class TestStartedEvent {
}
class RunFinishedEvent {
}
class RunStartedEvent {
}
class "UnityEvent`1"<T> {
}
"UnityEvent`1" "<ITestResult>" <|-- TestFinishedEvent
"UnityEvent`1" "<ITest>" <|-- TestStartedEvent
"UnityEvent`1" "<ITestResult>" <|-- RunFinishedEvent
"UnityEvent`1" "<ITest>" <|-- RunStartedEvent
@enduml
