@startuml
class SpriteMeshController {
    + disable : bool <<get>> <<set>>
    + OnGUI() : void
}
struct EdgeIntersectionResult {
    + startVertexIndex : int
    + endVertexIndex : int
    + intersectEdgeIndex : int
}
class "ISelection`1"<T> {
}
SpriteMeshController --> "spriteMeshView" ISpriteMeshView
SpriteMeshController --> "spriteMeshData" BaseSpriteMeshData
SpriteMeshController --> "selection<int>" "ISelection`1"
SpriteMeshController --> "cacheUndo" ICacheUndo
SpriteMeshController --> "triangulator" ITriangulator
SpriteMeshController --> "frame" Rect
SpriteMeshController +-- EdgeIntersectionResult
EdgeIntersectionResult --> "endPosition" Vector2
@enduml
