@startuml
class GridSelectionRotateTool {
    + <<override>> HandleTool(position:Vector3, rotation:Quaternion, scale:Vector3) : void
}
class Styles <<static>> {
}
GridSelectionTool <|-- GridSelectionRotateTool
GridSelectionRotateTool --> "toolbarIcon" GUIContent
GridSelectionRotateTool +-- Styles
Styles o-> "toolbarIcon" GUIContent
@enduml
