@startuml
class MultipleEditablePathController {
    + enableSnapping : bool <<get>>
    + ClearPaths() : void
    + AddPath(path:IEditablePath) : void
    + RemovePath(path:IEditablePath) : void
    + RegisterUndo(name:string) : void
    + ClearSelection() : void
    + SelectPoint(index:int, select:bool) : void
    + CreatePoint(index:int, position:Vector3) : void
    + RemoveSelectedPoints() : void
    + MoveSelectedPoints(delta:Vector3) : void
    + MoveEdge(index:int, delta:Vector3) : void
    + SetLeftTangent(index:int, position:Vector3, setToLinear:bool, mirror:bool, cachedRightTangent:Vector3, cachedTangentMode:TangentMode) : void
    + SetRightTangent(index:int, position:Vector3, setToLinear:bool, mirror:bool, cachedLeftTangent:Vector3, cachedTangentMode:TangentMode) : void
    + ClearClosestPath() : void
    + AddClosestPath(distance:float) : void
}
class "ISnapping`1"<T> {
}
IEditablePathController <|-- MultipleEditablePathController
MultipleEditablePathController --> "editablePath" IEditablePath
MultipleEditablePathController --> "closestEditablePath" IEditablePath
MultipleEditablePathController --> "snapping<Vector3>" "ISnapping`1"
@enduml
