@startuml
class LudiqGraphsChangelog_1_2_3 {
    + LudiqGraphsChangelog_1_2_3(plugin:Plugin)
    + <<override>> description : string <<get>>
}
class "IEnumerable`1"<T> {
}
PluginChangelog <|-- LudiqGraphsChangelog_1_2_3
LudiqGraphsChangelog_1_2_3 --> "version" SemanticVersion
LudiqGraphsChangelog_1_2_3 --> "date" DateTime
LudiqGraphsChangelog_1_2_3 --> "changes<string>" "IEnumerable`1"
@enduml
