@startuml
struct bool3x3 {
    + bool3x3(c0:bool3, c1:bool3, c2:bool3)
    + bool3x3(m00:bool, m01:bool, m02:bool, m10:bool, m11:bool, m12:bool, m20:bool, m21:bool, m22:bool)
    + bool3x3(v:bool)
    + Equals(rhs:bool3x3) : bool
    + <<override>> Equals(o:object) : bool
    + <<override>> GetHashCode() : int
    + <<override>> ToString() : string
}
class math <<static>> <<partial>> {
    + {static} bool3x3(c0:bool3, c1:bool3, c2:bool3) : bool3x3
    + {static} bool3x3(m00:bool, m01:bool, m02:bool, m10:bool, m11:bool, m12:bool, m20:bool, m21:bool, m22:bool) : bool3x3
    + {static} bool3x3(v:bool) : bool3x3
    + {static} transpose(v:bool3x3) : bool3x3
    + {static} hash(v:bool3x3) : uint
    + {static} hashwide(v:bool3x3) : uint3
}
class "IEquatable`1"<T> {
}
bool3x3 --> "c0" bool3
bool3x3 --> "c1" bool3
bool3x3 --> "c2" bool3
@enduml
