@startuml
struct AssetConversionRecord {
    + referencedResource : string
    + target : string
    + replacement : string
}
class AssetConversionData {
}
class TMP_ProjectTextSpacingConversionTool {
}
class TMP_ProjectConversionUtility {
}
class TMP_PackageUtilities {
    + {static} ImportProjectResourcesMenu() : void
    + {static} ImportExamplesContentMenu() : void
}
class "List`1"<T> {
}
struct AssetModificationRecord {
    + assetFilePath : string
    + assetDataFile : string
}
struct AssetFileRecord {
    + assetFilePath : string
    + AssetFileRecord(filePath:string, metaFilePath:string)
}
struct AssetModificationRecord {
    + assetFilePath : string
    + assetDataFile : string
}
struct AssetFileRecord {
    + assetFilePath : string
    + assetMetaFilePath : string
    + AssetFileRecord(filePath:string, metaFilePath:string)
}
enum SaveAssetDialogueOptions {
    Unset= 0,
    Save= 1,
    SaveAll= 2,
    DoNotSave= 3,
}
struct AssetRemappingRecord {
    + oldGuid : string
    + newGuid : string
    + assetPath : string
}
struct AssetModificationRecord {
    + assetFilePath : string
    + assetDataFile : string
}
AssetConversionData --> "assetRecords<AssetConversionRecord>" "List`1"
EditorWindow <|-- TMP_ProjectTextSpacingConversionTool
EditorWindow <|-- TMP_ProjectConversionUtility
Editor <|-- TMP_PackageUtilities
TMP_ProjectTextSpacingConversionTool +-- AssetModificationRecord
TMP_ProjectTextSpacingConversionTool +-- AssetFileRecord
TMP_ProjectConversionUtility +-- AssetModificationRecord
TMP_ProjectConversionUtility +-- AssetFileRecord
TMP_PackageUtilities +-- SaveAssetDialogueOptions
TMP_PackageUtilities +-- AssetRemappingRecord
TMP_PackageUtilities +-- AssetModificationRecord
@enduml
